<svg xmlns="http://www.w3.org/2000/svg" xmlns:xlink="http://www.w3.org/1999/xlink" width="64" zoomAndPan="magnify" viewBox="0 0 48 48" height="64" preserveAspectRatio="xMidYMid meet" version="1.0"><defs><clipPath id="6ef34fac3f"><path d="M 2.070312 1.578125 L 46 1.578125 L 46 45.519531 L 2.070312 45.519531 Z M 2.070312 1.578125 " clip-rule="nonzero"/></clipPath></defs><g clip-path="url(#6ef34fac3f)"><path fill="#45b29d" d="M 45.925781 27.71875 C 41.585938 27.71875 39.410156 32.964844 42.480469 36.035156 L 36.523438 41.992188 C 33.453125 38.921875 28.207031 41.097656 28.207031 45.4375 L 19.789062 45.4375 C 19.789062 41.097656 14.539062 38.921875 11.46875 41.992188 L 5.515625 36.035156 C 8.582031 32.964844 6.410156 27.71875 2.070312 27.71875 L 2.070312 19.296875 C 6.410156 19.296875 8.582031 14.050781 5.515625 10.980469 L 11.46875 5.023438 C 14.539062 8.09375 19.789062 5.917969 19.789062 1.578125 L 28.207031 1.578125 C 28.207031 5.917969 33.457031 8.09375 36.527344 5.023438 L 42.480469 10.980469 C 39.414062 14.050781 41.585938 19.296875 45.925781 19.296875 Z M 45.925781 27.71875 " fill-opacity="1" fill-rule="nonzero"/></g><path fill="#45595a" d="M 24.113281 9.050781 C 27.984375 8.519531 30.152344 10.164062 30.613281 13.984375 C 29.746094 18.285156 27.207031 21.089844 22.992188 22.390625 C 21.960938 22.703125 20.914062 22.777344 19.851562 22.613281 C 19.53125 22.507812 19.269531 22.324219 19.066406 22.054688 C 18.917969 21.378906 18.917969 20.707031 19.066406 20.035156 C 22.261719 20.382812 24.804688 19.1875 26.691406 16.449219 C 27.371094 15.414062 27.59375 14.296875 27.363281 13.085938 C 26.925781 12.140625 26.179688 11.691406 25.121094 11.742188 C 22.996094 12.09375 21.277344 13.140625 19.964844 14.878906 C 16.894531 19.394531 15.921875 24.324219 17.050781 29.675781 C 18.296875 33.941406 21.023438 35.324219 25.234375 33.824219 C 26.375 33.238281 27.421875 32.527344 28.371094 31.691406 C 29.648438 32.230469 29.984375 33.125 29.378906 34.382812 C 25.886719 37.441406 22.039062 38.003906 17.835938 36.0625 C 15.375 34.09375 13.992188 31.515625 13.6875 28.332031 C 13.015625 22.582031 14.433594 17.425781 17.945312 12.863281 C 19.65625 10.984375 21.710938 9.710938 24.113281 9.050781 Z M 24.113281 9.050781 " fill-opacity="1" fill-rule="evenodd"/></svg>