<svg xmlns="http://www.w3.org/2000/svg" xmlns:xlink="http://www.w3.org/1999/xlink" width="300" zoomAndPan="magnify" viewBox="0 0 224.87999 48" height="64" preserveAspectRatio="xMidYMid meet" version="1.0"><defs><g/></defs><path fill="#4f46e5" d="M 25.414062 38.320312 C 25.148438 37.339844 25.730469 36.335938 26.707031 36.074219 L 45.875 30.9375 C 46.855469 30.675781 47.859375 31.257812 48.121094 32.234375 L 48.90625 35.160156 C 49.253906 36.460938 48.480469 37.804688 47.175781 38.152344 L 31.550781 42.339844 C 28.941406 43.039062 26.261719 41.488281 25.5625 38.882812 Z M 25.414062 38.320312 " fill-opacity="1" fill-rule="nonzero"/><path fill="#4f46e5" d="M 19.222656 15.21875 C 18.550781 12.710938 20.039062 10.132812 22.546875 9.460938 L 30.109375 37.683594 L 25.566406 38.902344 Z M 19.222656 15.21875 " fill-opacity="1" fill-rule="nonzero"/><path fill="#4338ca" d="M 44.746094 28.71875 L 47.015625 28.113281 L 48.296875 32.898438 C 48.636719 34.152344 47.890625 35.441406 46.636719 35.777344 Z M 44.746094 28.71875 " fill-opacity="1" fill-rule="nonzero"/><path fill="#6366f1" d="M 41.347656 6.953125 C 40.996094 5.648438 39.65625 4.875 38.351562 5.222656 L 22.636719 9.433594 C 21.332031 9.785156 20.558594 11.125 20.910156 12.429688 L 27.839844 38.292969 L 36.882812 35.867188 C 37.53125 35.695312 37.917969 35.027344 37.742188 34.378906 C 37.570312 33.726562 37.953125 33.0625 38.605469 32.886719 L 45.285156 31.097656 C 46.589844 30.746094 47.363281 29.40625 47.015625 28.101562 Z M 41.347656 6.953125 " fill-opacity="1" fill-rule="nonzero"/><path fill="#312e81" d="M 35.058594 13.261719 C 35.117188 12.535156 36.054688 12.285156 36.464844 12.882812 L 36.640625 13.136719 C 36.769531 13.324219 36.972656 13.445312 37.199219 13.46875 L 37.578125 13.507812 C 38.28125 13.582031 38.527344 14.488281 37.953125 14.902344 L 37.644531 15.128906 C 37.460938 15.257812 37.34375 15.464844 37.324219 15.691406 L 37.300781 16 C 37.242188 16.722656 36.304688 16.972656 35.894531 16.375 L 35.71875 16.121094 C 35.589844 15.9375 35.386719 15.816406 35.160156 15.792969 L 34.78125 15.753906 C 34.074219 15.679688 33.832031 14.773438 34.40625 14.355469 L 34.714844 14.132812 C 34.898438 14 35.015625 13.792969 35.03125 13.570312 Z M 35.058594 13.261719 " fill-opacity="1" fill-rule="nonzero"/><path fill="#312e81" d="M 31.777344 19.183594 C 31.835938 18.457031 32.769531 18.207031 33.183594 18.804688 L 34.433594 20.609375 C 34.5625 20.796875 34.765625 20.917969 34.988281 20.941406 L 37.195312 21.171875 C 37.902344 21.246094 38.144531 22.152344 37.570312 22.566406 L 35.773438 23.871094 C 35.59375 24.003906 35.476562 24.210938 35.457031 24.433594 L 35.28125 26.625 C 35.21875 27.347656 34.285156 27.597656 33.871094 27 L 32.621094 25.195312 C 32.496094 25.007812 32.289062 24.886719 32.066406 24.863281 L 29.859375 24.632812 C 29.152344 24.558594 28.910156 23.65625 29.484375 23.238281 L 31.28125 21.933594 C 31.464844 21.800781 31.578125 21.597656 31.597656 21.371094 Z M 31.777344 19.183594 " fill-opacity="1" fill-rule="nonzero"/><path fill="#eef2ff" d="M 27.839844 38.292969 C 27.492188 36.992188 28.261719 35.65625 29.558594 35.308594 L 45.375 31.070312 L 46.636719 35.777344 L 30.820312 40.015625 C 29.523438 40.363281 28.1875 39.589844 27.839844 38.292969 Z M 27.839844 38.292969 " fill-opacity="1" fill-rule="nonzero"/><g fill="#ffffff" fill-opacity="1"><g transform="translate(70.505997, 32.852544)"><g><path d="M 1.765625 0 L 1.765625 -20.390625 L 6.078125 -20.390625 L 6.078125 -11.96875 L 14.828125 -11.96875 L 14.828125 -20.390625 L 19.125 -20.390625 L 19.125 0 L 14.828125 0 L 14.828125 -8.421875 L 6.078125 -8.421875 L 6.078125 0 Z M 1.765625 0 "/></g></g></g><g fill="#ffffff" fill-opacity="1"><g transform="translate(91.416245, 32.852544)"><g><path d="M 6.046875 0.28125 C 4.585938 0.28125 3.375 -0.0976562 2.40625 -0.859375 C 1.445312 -1.617188 0.96875 -2.753906 0.96875 -4.265625 C 0.96875 -5.410156 1.238281 -6.304688 1.78125 -6.953125 C 2.320312 -7.609375 3.023438 -8.085938 3.890625 -8.390625 C 4.765625 -8.691406 5.707031 -8.890625 6.71875 -8.984375 C 8.039062 -9.109375 8.988281 -9.242188 9.5625 -9.390625 C 10.132812 -9.535156 10.421875 -9.859375 10.421875 -10.359375 L 10.421875 -10.40625 C 10.421875 -11.039062 10.222656 -11.53125 9.828125 -11.875 C 9.429688 -12.21875 8.875 -12.390625 8.15625 -12.390625 C 7.382812 -12.390625 6.773438 -12.222656 6.328125 -11.890625 C 5.878906 -11.554688 5.582031 -11.132812 5.4375 -10.625 L 1.515625 -10.953125 C 1.804688 -12.347656 2.53125 -13.453125 3.6875 -14.265625 C 4.84375 -15.078125 6.335938 -15.484375 8.171875 -15.484375 C 9.304688 -15.484375 10.367188 -15.300781 11.359375 -14.9375 C 12.347656 -14.582031 13.144531 -14.023438 13.75 -13.265625 C 14.351562 -12.515625 14.65625 -11.53125 14.65625 -10.3125 L 14.65625 0 L 10.640625 0 L 10.640625 -2.125 L 10.515625 -2.125 C 10.148438 -1.414062 9.597656 -0.835938 8.859375 -0.390625 C 8.117188 0.0546875 7.179688 0.28125 6.046875 0.28125 Z M 7.265625 -2.640625 C 8.191406 -2.640625 8.953125 -2.910156 9.546875 -3.453125 C 10.148438 -3.992188 10.453125 -4.664062 10.453125 -5.46875 L 10.453125 -7.09375 C 10.285156 -6.976562 10.023438 -6.875 9.671875 -6.78125 C 9.328125 -6.695312 8.957031 -6.625 8.5625 -6.5625 C 8.164062 -6.5 7.8125 -6.445312 7.5 -6.40625 C 6.757812 -6.289062 6.160156 -6.078125 5.703125 -5.765625 C 5.253906 -5.460938 5.03125 -5.007812 5.03125 -4.40625 C 5.03125 -3.820312 5.238281 -3.378906 5.65625 -3.078125 C 6.082031 -2.785156 6.617188 -2.640625 7.265625 -2.640625 Z M 7.265625 -2.640625 "/></g></g></g><g fill="#ffffff" fill-opacity="1"><g transform="translate(107.678666, 32.852544)"><g><path d="M 1.6875 0 L 1.6875 -15.296875 L 5.796875 -15.296875 L 5.796875 -12.625 L 5.96875 -12.625 C 6.238281 -13.570312 6.703125 -14.289062 7.359375 -14.78125 C 8.015625 -15.269531 8.773438 -15.515625 9.640625 -15.515625 C 10.046875 -15.515625 10.425781 -15.460938 10.78125 -15.359375 C 11.132812 -15.253906 11.445312 -15.117188 11.71875 -14.953125 L 10.453125 -11.453125 C 10.253906 -11.546875 10.035156 -11.628906 9.796875 -11.703125 C 9.566406 -11.773438 9.304688 -11.8125 9.015625 -11.8125 C 8.148438 -11.8125 7.421875 -11.515625 6.828125 -10.921875 C 6.234375 -10.335938 5.9375 -9.582031 5.9375 -8.65625 L 5.9375 0 Z M 1.6875 0 "/></g></g></g><g fill="#ffffff" fill-opacity="1"><g transform="translate(118.974762, 32.852544)"><g><path d="M 7.328125 0.25 C 6.160156 0.25 5.109375 -0.046875 4.171875 -0.640625 C 3.242188 -1.242188 2.503906 -2.128906 1.953125 -3.296875 C 1.398438 -4.472656 1.125 -5.914062 1.125 -7.625 C 1.125 -9.375 1.40625 -10.832031 1.96875 -12 C 2.539062 -13.164062 3.296875 -14.035156 4.234375 -14.609375 C 5.171875 -15.191406 6.195312 -15.484375 7.3125 -15.484375 C 8.164062 -15.484375 8.878906 -15.335938 9.453125 -15.046875 C 10.035156 -14.765625 10.503906 -14.410156 10.859375 -13.984375 C 11.210938 -13.554688 11.484375 -13.132812 11.671875 -12.71875 L 11.796875 -12.71875 L 11.796875 -20.390625 L 16.03125 -20.390625 L 16.03125 0 L 11.84375 0 L 11.84375 -2.453125 L 11.671875 -2.453125 C 11.472656 -2.023438 11.191406 -1.601562 10.828125 -1.1875 C 10.460938 -0.769531 9.992188 -0.425781 9.421875 -0.15625 C 8.847656 0.113281 8.148438 0.25 7.328125 0.25 Z M 8.671875 -3.125 C 9.691406 -3.125 10.484375 -3.535156 11.046875 -4.359375 C 11.609375 -5.191406 11.890625 -6.285156 11.890625 -7.640625 C 11.890625 -9.015625 11.609375 -10.101562 11.046875 -10.90625 C 10.492188 -11.707031 9.703125 -12.109375 8.671875 -12.109375 C 7.617188 -12.109375 6.816406 -11.695312 6.265625 -10.875 C 5.722656 -10.050781 5.453125 -8.972656 5.453125 -7.640625 C 5.453125 -6.304688 5.726562 -5.21875 6.28125 -4.375 C 6.832031 -3.539062 7.628906 -3.125 8.671875 -3.125 Z M 8.671875 -3.125 "/></g></g></g><g fill="#ffffff" fill-opacity="1"><g transform="translate(136.779818, 32.852544)"><g><path d="M 8.59375 0.296875 C 7.03125 0.296875 5.6875 -0.0351562 4.5625 -0.703125 C 3.4375 -1.367188 2.570312 -2.296875 1.96875 -3.484375 C 1.375 -4.671875 1.078125 -6.035156 1.078125 -7.578125 C 1.078125 -9.148438 1.378906 -10.523438 1.984375 -11.703125 C 2.585938 -12.890625 3.453125 -13.816406 4.578125 -14.484375 C 5.703125 -15.148438 7.035156 -15.484375 8.578125 -15.484375 C 9.910156 -15.484375 11.078125 -15.238281 12.078125 -14.75 C 13.085938 -14.269531 13.882812 -13.59375 14.46875 -12.71875 C 15.050781 -11.84375 15.367188 -10.816406 15.421875 -9.640625 L 11.421875 -9.640625 C 11.316406 -10.398438 11.019531 -11.015625 10.53125 -11.484375 C 10.050781 -11.953125 9.425781 -12.1875 8.65625 -12.1875 C 7.664062 -12.1875 6.875 -11.789062 6.28125 -11 C 5.6875 -10.207031 5.390625 -9.085938 5.390625 -7.640625 C 5.390625 -6.179688 5.6875 -5.050781 6.28125 -4.25 C 6.875 -3.457031 7.664062 -3.0625 8.65625 -3.0625 C 9.382812 -3.0625 9.992188 -3.28125 10.484375 -3.71875 C 10.984375 -4.15625 11.296875 -4.785156 11.421875 -5.609375 L 15.421875 -5.609375 C 15.359375 -4.441406 15.039062 -3.410156 14.46875 -2.515625 C 13.90625 -1.628906 13.125 -0.9375 12.125 -0.4375 C 11.132812 0.0507812 9.957031 0.296875 8.59375 0.296875 Z M 8.59375 0.296875 "/></g></g></g><g fill="#ffffff" fill-opacity="1"><g transform="translate(153.241279, 32.852544)"><g><path d="M 8.59375 0.296875 C 7.050781 0.296875 5.71875 -0.03125 4.59375 -0.6875 C 3.46875 -1.351562 2.597656 -2.273438 1.984375 -3.453125 C 1.378906 -4.640625 1.078125 -6.015625 1.078125 -7.578125 C 1.078125 -9.160156 1.378906 -10.546875 1.984375 -11.734375 C 2.597656 -12.921875 3.46875 -13.84375 4.59375 -14.5 C 5.71875 -15.15625 7.050781 -15.484375 8.59375 -15.484375 C 10.144531 -15.484375 11.484375 -15.15625 12.609375 -14.5 C 13.734375 -13.84375 14.597656 -12.921875 15.203125 -11.734375 C 15.816406 -10.546875 16.125 -9.160156 16.125 -7.578125 C 16.125 -6.015625 15.816406 -4.640625 15.203125 -3.453125 C 14.597656 -2.273438 13.734375 -1.351562 12.609375 -0.6875 C 11.484375 -0.03125 10.144531 0.296875 8.59375 0.296875 Z M 8.625 -2.984375 C 9.664062 -2.984375 10.457031 -3.421875 11 -4.296875 C 11.539062 -5.171875 11.8125 -6.273438 11.8125 -7.609375 C 11.8125 -8.941406 11.539062 -10.046875 11 -10.921875 C 10.457031 -11.804688 9.664062 -12.25 8.625 -12.25 C 7.550781 -12.25 6.742188 -11.804688 6.203125 -10.921875 C 5.660156 -10.046875 5.390625 -8.941406 5.390625 -7.609375 C 5.390625 -6.273438 5.660156 -5.171875 6.203125 -4.296875 C 6.742188 -3.421875 7.550781 -2.984375 8.625 -2.984375 Z M 8.625 -2.984375 "/></g></g></g><g fill="#ffffff" fill-opacity="1"><g transform="translate(169.931644, 32.852544)"><g><path d="M 15.953125 -15.296875 L 10.59375 0 L 5.828125 0 L 0.484375 -15.296875 L 4.953125 -15.296875 L 8.125 -4.34375 L 8.296875 -4.34375 L 11.453125 -15.296875 Z M 15.953125 -15.296875 "/></g></g></g><g fill="#ffffff" fill-opacity="1"><g transform="translate(185.845702, 32.852544)"><g><path d="M 8.65625 0.296875 C 7.09375 0.296875 5.742188 -0.0195312 4.609375 -0.65625 C 3.472656 -1.300781 2.597656 -2.210938 1.984375 -3.390625 C 1.378906 -4.566406 1.078125 -5.960938 1.078125 -7.578125 C 1.078125 -9.148438 1.378906 -10.53125 1.984375 -11.71875 C 2.597656 -12.90625 3.457031 -13.828125 4.5625 -14.484375 C 5.675781 -15.148438 6.984375 -15.484375 8.484375 -15.484375 C 9.835938 -15.484375 11.054688 -15.195312 12.140625 -14.625 C 13.222656 -14.0625 14.082031 -13.203125 14.71875 -12.046875 C 15.351562 -10.898438 15.671875 -9.457031 15.671875 -7.71875 L 15.671875 -6.5625 L 5.265625 -6.5625 L 5.265625 -6.546875 C 5.265625 -5.410156 5.578125 -4.507812 6.203125 -3.84375 C 6.828125 -3.1875 7.671875 -2.859375 8.734375 -2.859375 C 9.441406 -2.859375 10.050781 -3.007812 10.5625 -3.3125 C 11.082031 -3.613281 11.453125 -4.054688 11.671875 -4.640625 L 15.59375 -4.375 C 15.289062 -2.957031 14.53125 -1.820312 13.3125 -0.96875 C 12.101562 -0.125 10.550781 0.296875 8.65625 0.296875 Z M 5.265625 -9.1875 L 11.6875 -9.1875 C 11.675781 -10.09375 11.378906 -10.84375 10.796875 -11.4375 C 10.222656 -12.03125 9.476562 -12.328125 8.5625 -12.328125 C 7.613281 -12.328125 6.835938 -12.019531 6.234375 -11.40625 C 5.628906 -10.789062 5.304688 -10.050781 5.265625 -9.1875 Z M 5.265625 -9.1875 "/></g></g></g><g fill="#ffffff" fill-opacity="1"><g transform="translate(202.595796, 32.852544)"><g><path d="M 1.6875 0 L 1.6875 -15.296875 L 5.796875 -15.296875 L 5.796875 -12.625 L 5.96875 -12.625 C 6.238281 -13.570312 6.703125 -14.289062 7.359375 -14.78125 C 8.015625 -15.269531 8.773438 -15.515625 9.640625 -15.515625 C 10.046875 -15.515625 10.425781 -15.460938 10.78125 -15.359375 C 11.132812 -15.253906 11.445312 -15.117188 11.71875 -14.953125 L 10.453125 -11.453125 C 10.253906 -11.546875 10.035156 -11.628906 9.796875 -11.703125 C 9.566406 -11.773438 9.304688 -11.8125 9.015625 -11.8125 C 8.148438 -11.8125 7.421875 -11.515625 6.828125 -10.921875 C 6.234375 -10.335938 5.9375 -9.582031 5.9375 -8.65625 L 5.9375 0 Z M 1.6875 0 "/></g></g></g></svg>